<svg xmlns="http://www.w3.org/2000/svg" viewBox="0 0 1919.14 344.92"><defs><style>.cls-1{fill:#2c333c;}</style></defs><title>资源 3</title><g id="图层_2" data-name="图层 2"><g id="图层_1-2" data-name="图层 1"><path class="cls-1" d="M0,20.08H92.11q42,0,65,7t38.79,31.76q15.7,24.73,15.7,61.29,0,35.16-12.66,58.13t-35,33.16q-22.38,10.2-68.79,10.2H70.31V340H0Zm70.31,51.8V166.8h21.8q28.83,0,37.15-13.39t8.32-34.77q0-18.09-6.45-29.25T116.13,75q-8.56-3.17-24-3.17Z"/><path class="cls-1" d="M300.94,178.52l-62.58-6.09q4.45-35.62,30.35-54.84T334,98.36q33.28,0,53.44,12.77t25.43,29.65q5.27,16.88,5.27,52.27V287.5q0,44.07,4,52.5h-61.4q-3.3-9.61-3.29-36.33-21.76,41.25-64.8,41.25-27.61,0-44.92-16.52t-17.31-48.16q0-39.61,26.2-61.29T352,193v-8.91q0-23.67-4.78-32.81t-18.55-9.14Q303.5,142.19,300.94,178.52ZM352,227q-28.83,3.27-41.13,12.73t-12.3,31.89q0,29.9,22,29.9,12,0,21.68-13.43T352,238.71Z"/><path class="cls-1" d="M476.48,30.63l64.22-2.11v74.77H584.3v52H540.7v87q0,24.14,1.05,31.29a18.37,18.37,0,0,0,7,12q6,4.81,20,4.8,7.5,0,18.75-.47V340a186.14,186.14,0,0,1-40.31,4.92q-30,0-45.94-11.48t-20.39-28.83q-4.45-17.34-4.45-55.08V155.31H450.23v-52h26.25Z"/><path class="cls-1" d="M613.83,103.28H672v57.19q15.7-60.23,56-60.23a62.66,62.66,0,0,1,11.25,1.17v64.45a94.13,94.13,0,0,0-11-.94q-48.28,0-48.28,73.13V340H613.83Z"/><path class="cls-1" d="M947.81,221.64q0,123.28-96,123.28-96.21,0-96.21-123.28,0-123,96.21-123Q947.81,98.59,947.81,221.64Zm-68.2.12q0-45.3-6.19-61.26t-21.59-16q-14.94,0-21.47,15.14t-6.53,62.08q0,43.43,5.6,60.33T851.84,299q16.1,0,21.94-16.78T879.61,221.76Z"/><path class="cls-1" d="M986.48,103.28h62.58v32.34q16.4-37,59.3-37,23.2,0,38.32,10.43t19.34,26.6q4.22,16.17,4.22,49.22V340h-66.09V184.84q0-23.91-6.09-29.53t-16.41-5.62q-17.81,0-23.44,10.9t-5.62,40.66V340H986.48Z"/><path class="cls-1" d="M1212.19,103.28h66.09V255.34q0,23,4.22,30.74t18.28,7.74q12.89,0,19.57-6.34t8.09-17.48q1.41-11.15,1.41-45.87V103.28h66.09V340h-62.11V307.66q-14.06,24.14-28,30.7t-32.93,6.56q-25.55,0-39.14-10.55a47.37,47.37,0,0,1-17.58-26.72q-4-16.17-4-50.39Z"/><path class="cls-1" d="M1600.55,160.23l-47.11,14.06q-9.38-32.11-34.69-32.11-20.63,0-20.62,20.63,0,11.72,7.73,17.81t31.88,14.53q27.19,9.61,39.84,16.88t21.33,21.91q8.67,14.65,8.67,33.63,0,32.82-23.67,55.08t-66.09,22.27q-79.92,0-88.59-70.55l52.5-8.44q6.56,35.39,37.27,35.39,26.25,0,26.25-22,0-11.72-7.73-17.81t-30-13.12q-40.78-13.12-56-31.64a65.5,65.5,0,0,1-15.23-42.89q0-34.22,24-54.84t60.12-20.62Q1583.44,98.36,1600.55,160.23Z"/><path d="M1914.33,0c1.47,2.72,3.85,5.21,4.08,8,3.4,29.13-5.1,54.74-25.84,75.37a123.91,123.91,0,0,0-27,40.12,144,144,0,0,1-55.53,66.19c-14.17,9.18-29.69,15.3-45.9,20.29-11.67,3.51-22.78,8.73-33.89,13.94-4,1.81-6.23,1.93-9.18-1.47a181.44,181.44,0,0,0-13-13.37c-24.48-23.35-35.81-52.59-38.42-85.79-.34-3.51.23-6.91,4.53-7,4-.11,4.31,3.06,4.76,6.35,1.7,11.56,3.63,23,5.44,34.45a11,11,0,0,1,1.93.11,27.84,27.84,0,0,0,2.15-3.63q25.5-57,.23-114c-.79-1.7-1.59-3.4-2.49-5.1-1.47-2.95-1.47-6,1.93-6.91,1.81-.45,5.21,1.13,6.12,2.72a84,84,0,0,1,7.14,16c3.4,10.88,6.12,22.1,9.18,33.55,1.7-1.13,3.74-2.27,5.78-3.63A127.22,127.22,0,0,0,1757,29.81c.57-1.13.91-2.83,1.81-3.4,1.93-1.25,4.42-3.06,6.23-2.61,3.4.91,3.4,3.85,1.93,6.91a130.63,130.63,0,0,1-33.89,44.09,203.58,203.58,0,0,1-18.81,13.6c-2.61,1.7-4,3.29-4,6.69a144.67,144.67,0,0,1-17.91,71.17,8.78,8.78,0,0,0-.11,6.57A119.79,119.79,0,0,0,1723.93,213c1.25,1,3.74,1.7,5.21,1.13,12.35-4.53,24.59-9.29,36.83-14.05.79-.34,1.7-.68,2.83-1.13-5.67-12-8.5-24.48-7.59-37.51a131.21,131.21,0,0,1,2-13.37c.57-3.17,2-5.67,5.67-4.76,3.85.91,4.08,3.74,3.29,7.14a65.14,65.14,0,0,0,4.42,43.63c.34.68.79,1.25,1.36,2.15a141.9,141.9,0,0,0,51.57-33.89,10.79,10.79,0,0,0,2-5.1c2.72-17.23-1.25-33-10.88-47.37-.57-.79-1.59-1.59-1.59-2.27,0-2.27.45-4.65.68-6.91,2.27.57,5.55.34,6.69,1.81,9.18,11.79,13.83,25.39,15.07,40.23.11,1.36.11,2.61.23,5,1.47-1.7,2.49-2.49,3.17-3.74,8.39-15.87,16.77-31.62,24.93-47.6.57-1.13-.45-3.74-1.47-5.21Q1846.5,62,1849.73,25.73l.34-3.4c.45-3.17,1.81-5.67,5.44-5,3.4.57,3.74,3.06,3.85,6.35.23,10.65.23,21.53,2,32,1.93,11.45,7.82,21.53,15.41,30.83C1900.62,66,1913,40.8,1909.23,9.07c-.45-3.74-.11-6.57,2.95-9A12.35,12.35,0,0,1,1914.33,0Z"/><path d="M1731.87,340c-8.73-18.59-23.69-28.22-43.63-30.6-5.55-.68-11.33,0-17,.11-10.43.11-18-5.33-21.31-15.19-3.06-9.18,0-18.47,8.39-24.37A102.13,102.13,0,0,0,1683.7,245c-4.42-4.87-9.75-8.84-12.58-14.05a76.21,76.21,0,0,1-6.91-21.19c-1.13-5.55,1.59-7.37,7.37-6.69a52.38,52.38,0,0,1,44.65,36.61c1,3.4,1.7,6.57-2.49,7.93-4,1.25-5.1-1.93-6.12-5a42.57,42.57,0,0,0-23.46-26.86c-3.17-1.47-6.57-2.15-10.88-3.51,1.7,11.79,7.37,19.38,16.55,24.59,6.69,3.74,6.91,4.76,2.49,11.22-7.59,11-16.55,20.63-27.54,28.22-4.08,2.83-7,6.35-6.91,11.67.11,6,4,11.11,10.09,11.79,5.78.57,11.67-.11,17.45.23,26,1.7,44.43,14.85,56.33,37.74a4.53,4.53,0,0,1,.23,2.15C1738.67,340,1735.27,340,1731.87,340Z"/><path d="M1765.87,340c3.74-15.07,6.35-30.26,5.89-45.9a148,148,0,0,0-8.5-45.45c-2.49-7-1.59-8.61,5.67-9.86,10.88-1.81,19.15-7.25,24.48-17.23-13.94-4.31-32.75,3.29-42.16,17.11-2,2.95-3.17,6.57-5.33,9.29-1.25,1.47-3.85,1.81-5.78,2.72-.68-2-2.61-4.53-2-6.12,8.84-24.14,36.83-39.1,62.67-31.28,4.08,1.25,4.08,4.42,2.72,7.82a41.32,41.32,0,0,1-25.5,24.82c-1.59.57-3.17,1-5.33,1.7,10.09,30.6,11.45,61.43,2.27,92.37Z"/></g></g></svg>